<mxfile host="app.diagrams.net" agent="Mozilla/5.0 (Windows NT 10.0; Win64; x64) AppleWebKit/537.36 (KHTML, like Gecko) Chrome/131.0.0.0 Safari/537.36" scale="1" border="0" version="25.0.3">
  <diagram name="Page-1" id="0jmaiqFsBrW0T2rDMQmF">
    <mxGraphModel dx="921" dy="1498" grid="1" gridSize="10" guides="1" tooltips="1" connect="1" arrows="1" fold="1" page="1" pageScale="1" pageWidth="850" pageHeight="1100" math="0" shadow="0">
      <root>
        <mxCell id="0" />
        <mxCell id="1" parent="0" />
        <mxCell id="Fqk7M9ekvrdrmLru6vMV-1" value="" style="swimlane;startSize=0;" parent="1" vertex="1">
          <mxGeometry x="30" y="-100" width="620" height="550" as="geometry" />
        </mxCell>
        <mxCell id="Fqk7M9ekvrdrmLru6vMV-7" value="Admin" style="shape=umlActor;verticalLabelPosition=bottom;verticalAlign=top;html=1;outlineConnect=0;" parent="Fqk7M9ekvrdrmLru6vMV-1" vertex="1">
          <mxGeometry x="70" y="80" width="30" height="60" as="geometry" />
        </mxCell>
        <mxCell id="gFgXPUxbCPO_oZVPfuHR-4" value="" style="endArrow=classic;html=1;rounded=0;exitX=0.5;exitY=0.5;exitDx=0;exitDy=0;exitPerimeter=0;entryX=0;entryY=0.5;entryDx=0;entryDy=0;" parent="Fqk7M9ekvrdrmLru6vMV-1" source="Fqk7M9ekvrdrmLru6vMV-7" target="4FzPGAi7jGBfQQSVgUGV-7" edge="1">
          <mxGeometry width="50" height="50" relative="1" as="geometry">
            <mxPoint x="-25" y="160" as="sourcePoint" />
            <mxPoint x="145.00000000000136" y="110" as="targetPoint" />
          </mxGeometry>
        </mxCell>
        <mxCell id="4FzPGAi7jGBfQQSVgUGV-7" value="Melihat data user" style="ellipse;whiteSpace=wrap;html=1;" vertex="1" parent="Fqk7M9ekvrdrmLru6vMV-1">
          <mxGeometry x="150" y="85" width="120" height="50" as="geometry" />
        </mxCell>
        <mxCell id="4FzPGAi7jGBfQQSVgUGV-14" value="" style="endArrow=none;dashed=1;html=1;rounded=0;exitX=1;exitY=0.5;exitDx=0;exitDy=0;entryX=0;entryY=0.5;entryDx=0;entryDy=0;" edge="1" parent="Fqk7M9ekvrdrmLru6vMV-1" source="4FzPGAi7jGBfQQSVgUGV-7" target="4FzPGAi7jGBfQQSVgUGV-15">
          <mxGeometry width="50" height="50" relative="1" as="geometry">
            <mxPoint x="330" y="150" as="sourcePoint" />
            <mxPoint x="380" y="100" as="targetPoint" />
          </mxGeometry>
        </mxCell>
        <mxCell id="4FzPGAi7jGBfQQSVgUGV-16" value="Include" style="edgeLabel;html=1;align=center;verticalAlign=middle;resizable=0;points=[];" vertex="1" connectable="0" parent="4FzPGAi7jGBfQQSVgUGV-14">
          <mxGeometry x="0.1943" y="1" relative="1" as="geometry">
            <mxPoint x="-9" y="1" as="offset" />
          </mxGeometry>
        </mxCell>
        <mxCell id="4FzPGAi7jGBfQQSVgUGV-15" value="Login" style="ellipse;whiteSpace=wrap;html=1;" vertex="1" parent="Fqk7M9ekvrdrmLru6vMV-1">
          <mxGeometry x="335" y="85" width="120" height="50" as="geometry" />
        </mxCell>
        <mxCell id="Fqk7M9ekvrdrmLru6vMV-19" value="" style="endArrow=classic;html=1;rounded=0;" parent="1" edge="1">
          <mxGeometry width="50" height="50" relative="1" as="geometry">
            <mxPoint x="330" y="150" as="sourcePoint" />
            <mxPoint x="330" y="150" as="targetPoint" />
          </mxGeometry>
        </mxCell>
        <mxCell id="Fqk7M9ekvrdrmLru6vMV-26" value="Admin" style="shape=umlActor;verticalLabelPosition=bottom;verticalAlign=top;html=1;outlineConnect=0;" parent="1" vertex="1">
          <mxGeometry x="780" y="220" width="30" height="60" as="geometry" />
        </mxCell>
        <mxCell id="Fqk7M9ekvrdrmLru6vMV-30" value="" style="endArrow=classic;html=1;rounded=0;entryX=1;entryY=0.5;entryDx=0;entryDy=0;exitX=0.5;exitY=0.5;exitDx=0;exitDy=0;exitPerimeter=0;" parent="1" source="Fqk7M9ekvrdrmLru6vMV-26" edge="1">
          <mxGeometry width="50" height="50" relative="1" as="geometry">
            <mxPoint x="610" y="220" as="sourcePoint" />
            <mxPoint x="570" y="400" as="targetPoint" />
          </mxGeometry>
        </mxCell>
        <mxCell id="Fqk7M9ekvrdrmLru6vMV-31" value="" style="endArrow=classic;html=1;rounded=0;exitX=0.5;exitY=0.5;exitDx=0;exitDy=0;exitPerimeter=0;entryX=1;entryY=0.5;entryDx=0;entryDy=0;" parent="1" source="Fqk7M9ekvrdrmLru6vMV-26" edge="1">
          <mxGeometry width="50" height="50" relative="1" as="geometry">
            <mxPoint x="610" y="220" as="sourcePoint" />
            <mxPoint x="710" y="120" as="targetPoint" />
          </mxGeometry>
        </mxCell>
        <mxCell id="Fqk7M9ekvrdrmLru6vMV-32" value="" style="endArrow=classic;html=1;rounded=0;exitX=0.5;exitY=0.5;exitDx=0;exitDy=0;exitPerimeter=0;entryX=1;entryY=0.5;entryDx=0;entryDy=0;" parent="1" source="Fqk7M9ekvrdrmLru6vMV-26" edge="1">
          <mxGeometry width="50" height="50" relative="1" as="geometry">
            <mxPoint x="610" y="220" as="sourcePoint" />
            <mxPoint x="710" y="420" as="targetPoint" />
          </mxGeometry>
        </mxCell>
      </root>
    </mxGraphModel>
  </diagram>
</mxfile>
